# xmcd
#
# Track frame offsets: 
#        150
#        31869
#        51885
#        78439
#        100720
#        145486
#        185307
#        216895
#        253372
#        266572
#
# Disc length: 4267 seconds
#
# Revision: 0
# Processed by: cddbd v1.5.2PL0 Copyright (c) Steve Scherf et al.
# Submitted via: ExactAudioCopy v0.95a4
#
DISCID=8d10a90a
DTITLE=Austin Young and No Difference - Live Toad
DYEAR=2012
DGENRE=Blues
TTITLE0=Not As Strong
TTITLE1=Signal
TTITLE2=Disappearing Railroad Blues
TTITLE3=Further On Up The Road
TTITLE4=Nobody's Fault But Mine
TTITLE5=One Good Reason
TTITLE6=Blue As Can Be
TTITLE7=You Said
TTITLE8=Who's Coming Out
TTITLE9=Miss You Moore
EXTD=
EXTT0=
EXTT1=
EXTT2=
EXTT3=
EXTT4=
EXTT5=
EXTT6=
EXTT7=
EXTT8=
EXTT9=
PLAYORDER=
